<mxfile host="app.diagrams.net" modified="2024-06-05T07:37:30.002Z" agent="Mozilla/5.0 (Macintosh; Intel Mac OS X 10_15_7) AppleWebKit/537.36 (KHTML, like Gecko) Chrome/125.0.0.0 Safari/537.36 Edg/125.0.0.0" version="24.4.13" etag="PI7-lGRqUbkNbQau-nP8" type="github">
  <diagram name="第 1 页" id="Q3_ZxyeyENq3330okfEZ">
    <mxGraphModel>
      <root>
        <mxCell id="0" />
        <mxCell id="1" parent="0" />
      </root>
    </mxGraphModel>
  </diagram>
</mxfile>
